<svg id="_001-play-button" data-name="001-play-button" xmlns="http://www.w3.org/2000/svg" width="50" height="50" viewBox="0 0 50 50">
  <path id="パス_4090" data-name="パス 4090" d="M47.233,13.557A25.222,25.222,0,0,0,39.85,4.886a1.018,1.018,0,0,0-1.21,1.636,23.178,23.178,0,0,1,6.785,7.967A22.712,22.712,0,0,1,47.965,25,22.965,22.965,0,1,1,25,2.035,1.017,1.017,0,1,0,25,0,24.986,24.986,0,1,0,47.233,13.557Z" fill="#fff"/>
  <path id="パス_4091" data-name="パス 4091" d="M107.178,78.318a1.017,1.017,0,0,0-.514.884v22.311a1.017,1.017,0,0,0,2.033,0V80.99l15.052,8.96-11.068,7.131a1.017,1.017,0,1,0,1.1,1.709l12.448-8.02a1.017,1.017,0,0,0-.031-1.728l-18-10.715A1.017,1.017,0,0,0,107.178,78.318Z" transform="translate(-88.565 -64.916)" fill="#fff"/>
</svg>
